<svg width="83" height="19" viewBox="0 0 83 19" fill="none" xmlns="http://www.w3.org/2000/svg">
<path d="M2.16406 3.625H3.625L7.35156 12.8984L11.0703 3.625H12.5391L7.91406 15H6.77344L2.16406 3.625ZM1.6875 3.625H2.97656L3.1875 10.5625V15H1.6875V3.625ZM11.7188 3.625H13.0078V15H11.5078V10.5625L11.7188 3.625ZM18.9453 15.1562C18.3568 15.1562 17.8229 15.0573 17.3438 14.8594C16.8698 14.6562 16.4609 14.3724 16.1172 14.0078C15.7786 13.6432 15.5182 13.2109 15.3359 12.7109C15.1536 12.2109 15.0625 11.6641 15.0625 11.0703V10.7422C15.0625 10.0547 15.1641 9.44271 15.3672 8.90625C15.5703 8.36458 15.8464 7.90625 16.1953 7.53125C16.5443 7.15625 16.9401 6.8724 17.3828 6.67969C17.8255 6.48698 18.2839 6.39062 18.7578 6.39062C19.362 6.39062 19.8828 6.49479 20.3203 6.70312C20.763 6.91146 21.125 7.20312 21.4062 7.57812C21.6875 7.94792 21.8958 8.38542 22.0312 8.89062C22.1667 9.39062 22.2344 9.9375 22.2344 10.5312V11.1797H15.9219V10H20.7891V9.89062C20.7682 9.51562 20.6901 9.15104 20.5547 8.79688C20.4245 8.44271 20.2161 8.15104 19.9297 7.92188C19.6432 7.69271 19.2526 7.57812 18.7578 7.57812C18.4297 7.57812 18.1276 7.64844 17.8516 7.78906C17.5755 7.92448 17.3385 8.1276 17.1406 8.39844C16.9427 8.66927 16.7891 9 16.6797 9.39062C16.5703 9.78125 16.5156 10.2318 16.5156 10.7422V11.0703C16.5156 11.4714 16.5703 11.849 16.6797 12.2031C16.7943 12.5521 16.9583 12.8594 17.1719 13.125C17.3906 13.3906 17.6536 13.599 17.9609 13.75C18.2734 13.901 18.6276 13.9766 19.0234 13.9766C19.5339 13.9766 19.9661 13.8724 20.3203 13.6641C20.6745 13.4557 20.9844 13.1771 21.25 12.8281L22.125 13.5234C21.9427 13.7995 21.7109 14.0625 21.4297 14.3125C21.1484 14.5625 20.8021 14.7656 20.3906 14.9219C19.9844 15.0781 19.5026 15.1562 18.9453 15.1562ZM29.25 13.3594V3H30.7031V15H29.375L29.25 13.3594ZM23.5625 10.8672V10.7031C23.5625 10.0573 23.6406 9.47135 23.7969 8.94531C23.9583 8.41406 24.1849 7.95833 24.4766 7.57812C24.7734 7.19792 25.125 6.90625 25.5312 6.70312C25.9427 6.49479 26.401 6.39062 26.9062 6.39062C27.4375 6.39062 27.901 6.48438 28.2969 6.67188C28.6979 6.85417 29.0365 7.1224 29.3125 7.47656C29.5938 7.82552 29.8151 8.2474 29.9766 8.74219C30.138 9.23698 30.25 9.79688 30.3125 10.4219V11.1406C30.2552 11.7604 30.1432 12.3177 29.9766 12.8125C29.8151 13.3073 29.5938 13.7292 29.3125 14.0781C29.0365 14.4271 28.6979 14.6953 28.2969 14.8828C27.8958 15.0651 27.4271 15.1562 26.8906 15.1562C26.3958 15.1562 25.9427 15.0495 25.5312 14.8359C25.125 14.6224 24.7734 14.3229 24.4766 13.9375C24.1849 13.5521 23.9583 13.099 23.7969 12.5781C23.6406 12.0521 23.5625 11.4818 23.5625 10.8672ZM25.0156 10.7031V10.8672C25.0156 11.2891 25.0573 11.6849 25.1406 12.0547C25.2292 12.4245 25.3646 12.75 25.5469 13.0312C25.7292 13.3125 25.9609 13.5339 26.2422 13.6953C26.5234 13.8516 26.8594 13.9297 27.25 13.9297C27.7292 13.9297 28.1224 13.8281 28.4297 13.625C28.7422 13.4219 28.9922 13.1536 29.1797 12.8203C29.3672 12.487 29.513 12.125 29.6172 11.7344V9.85156C29.5547 9.5651 29.4635 9.28906 29.3438 9.02344C29.2292 8.7526 29.0781 8.51302 28.8906 8.30469C28.7083 8.09115 28.4818 7.92188 28.2109 7.79688C27.9453 7.67188 27.6302 7.60938 27.2656 7.60938C26.8698 7.60938 26.5286 7.69271 26.2422 7.85938C25.9609 8.02083 25.7292 8.24479 25.5469 8.53125C25.3646 8.8125 25.2292 9.14062 25.1406 9.51562C25.0573 9.88542 25.0156 10.2812 25.0156 10.7031ZM41.8828 9.05469V13.5625C41.7057 13.776 41.4323 14.0078 41.0625 14.2578C40.6927 14.5026 40.2161 14.7135 39.6328 14.8906C39.0495 15.0677 38.3438 15.1562 37.5156 15.1562C36.7812 15.1562 36.112 15.0365 35.5078 14.7969C34.9036 14.5521 34.3828 14.1953 33.9453 13.7266C33.513 13.2578 33.1797 12.6849 32.9453 12.0078C32.7109 11.3255 32.5938 10.5469 32.5938 9.67188V8.96094C32.5938 8.08594 32.7057 7.30729 32.9297 6.625C33.1589 5.94271 33.4844 5.36719 33.9062 4.89844C34.3281 4.42969 34.8307 4.07292 35.4141 3.82812C35.9974 3.58333 36.6458 3.46094 37.3594 3.46094C38.349 3.46094 39.1615 3.6224 39.7969 3.94531C40.4323 4.26302 40.9167 4.70573 41.25 5.27344C41.5885 5.83594 41.7969 6.48177 41.875 7.21094H39.6016C39.5443 6.82552 39.4349 6.48958 39.2734 6.20312C39.112 5.91667 38.8802 5.69271 38.5781 5.53125C38.2812 5.36979 37.8958 5.28906 37.4219 5.28906C37.0312 5.28906 36.6823 5.36979 36.375 5.53125C36.0729 5.6875 35.8177 5.91927 35.6094 6.22656C35.401 6.53385 35.2422 6.91406 35.1328 7.36719C35.0234 7.82031 34.9688 8.34635 34.9688 8.94531V9.67188C34.9688 10.2656 35.026 10.7917 35.1406 11.25C35.2552 11.7031 35.4245 12.0859 35.6484 12.3984C35.8776 12.7057 36.1589 12.9375 36.4922 13.0938C36.8255 13.25 37.2135 13.3281 37.6562 13.3281C38.026 13.3281 38.3333 13.2969 38.5781 13.2344C38.8281 13.1719 39.0286 13.0964 39.1797 13.0078C39.3359 12.9141 39.4557 12.8255 39.5391 12.7422V10.7266H37.3984V9.05469H41.8828ZM47.5234 15.1562C46.8672 15.1562 46.2786 15.0521 45.7578 14.8438C45.237 14.6302 44.7943 14.3359 44.4297 13.9609C44.0703 13.5859 43.7943 13.151 43.6016 12.6562C43.4089 12.1562 43.3125 11.625 43.3125 11.0625V10.75C43.3125 10.1094 43.4036 9.52344 43.5859 8.99219C43.7682 8.46094 44.0286 8 44.3672 7.60938C44.7109 7.21875 45.1276 6.91927 45.6172 6.71094C46.1068 6.4974 46.6589 6.39062 47.2734 6.39062C47.8724 6.39062 48.4036 6.48958 48.8672 6.6875C49.3307 6.88542 49.7188 7.16667 50.0312 7.53125C50.349 7.89583 50.5885 8.33333 50.75 8.84375C50.9115 9.34896 50.9922 9.91146 50.9922 10.5312V11.4688H44.2734V9.96875H48.7812V9.79688C48.7812 9.48438 48.724 9.20573 48.6094 8.96094C48.5 8.71094 48.3333 8.51302 48.1094 8.36719C47.8854 8.22135 47.599 8.14844 47.25 8.14844C46.9531 8.14844 46.6979 8.21354 46.4844 8.34375C46.2708 8.47396 46.0964 8.65625 45.9609 8.89062C45.8307 9.125 45.7318 9.40104 45.6641 9.71875C45.6016 10.0312 45.5703 10.375 45.5703 10.75V11.0625C45.5703 11.401 45.6172 11.7135 45.7109 12C45.8099 12.2865 45.9479 12.5339 46.125 12.7422C46.3073 12.9505 46.526 13.112 46.7812 13.2266C47.0417 13.3411 47.3359 13.3984 47.6641 13.3984C48.0703 13.3984 48.4479 13.3203 48.7969 13.1641C49.151 13.0026 49.4557 12.7604 49.7109 12.4375L50.8047 13.625C50.6276 13.8802 50.3854 14.125 50.0781 14.3594C49.776 14.5938 49.4115 14.7865 48.9844 14.9375C48.5573 15.0833 48.0703 15.1562 47.5234 15.1562ZM56.8438 12.6641C56.8438 12.5026 56.7969 12.3568 56.7031 12.2266C56.6094 12.0964 56.4349 11.9766 56.1797 11.8672C55.9297 11.7526 55.5677 11.6484 55.0938 11.5547C54.6667 11.4609 54.2682 11.3438 53.8984 11.2031C53.5339 11.0573 53.2161 10.8828 52.9453 10.6797C52.6797 10.4766 52.4714 10.237 52.3203 9.96094C52.1693 9.67969 52.0938 9.35938 52.0938 9C52.0938 8.64583 52.1693 8.3125 52.3203 8C52.4766 7.6875 52.6979 7.41146 52.9844 7.17188C53.276 6.92708 53.6302 6.73698 54.0469 6.60156C54.4688 6.46094 54.9427 6.39062 55.4688 6.39062C56.2031 6.39062 56.8333 6.50781 57.3594 6.74219C57.8906 6.97656 58.2969 7.29948 58.5781 7.71094C58.8646 8.11719 59.0078 8.58073 59.0078 9.10156H56.7578C56.7578 8.88281 56.7109 8.6875 56.6172 8.51562C56.5286 8.33854 56.388 8.20052 56.1953 8.10156C56.0078 7.9974 55.763 7.94531 55.4609 7.94531C55.2109 7.94531 54.9948 7.98958 54.8125 8.07812C54.6302 8.16146 54.4896 8.27604 54.3906 8.42188C54.2969 8.5625 54.25 8.71875 54.25 8.89062C54.25 9.02083 54.276 9.13802 54.3281 9.24219C54.3854 9.34115 54.4766 9.43229 54.6016 9.51562C54.7266 9.59896 54.888 9.67708 55.0859 9.75C55.2891 9.81771 55.5391 9.88021 55.8359 9.9375C56.4453 10.0625 56.9896 10.2266 57.4688 10.4297C57.9479 10.6276 58.3281 10.8984 58.6094 11.2422C58.8906 11.5807 59.0312 12.026 59.0312 12.5781C59.0312 12.9531 58.9479 13.2969 58.7812 13.6094C58.6146 13.9219 58.375 14.1953 58.0625 14.4297C57.75 14.6589 57.375 14.8385 56.9375 14.9688C56.5052 15.0938 56.0182 15.1562 55.4766 15.1562C54.6901 15.1562 54.0234 15.0156 53.4766 14.7344C52.9349 14.4531 52.5234 14.0964 52.2422 13.6641C51.9661 13.2266 51.8281 12.7786 51.8281 12.3203H53.9609C53.9714 12.6276 54.0495 12.875 54.1953 13.0625C54.3464 13.25 54.5365 13.3854 54.7656 13.4688C55 13.5521 55.2526 13.5938 55.5234 13.5938C55.8151 13.5938 56.0573 13.5547 56.25 13.4766C56.4427 13.3932 56.5885 13.2839 56.6875 13.1484C56.7917 13.0078 56.8438 12.8464 56.8438 12.6641ZM64.6328 6.54688V8.14062H59.7109V6.54688H64.6328ZM60.9297 4.46094H63.1797V12.4531C63.1797 12.6979 63.2109 12.8854 63.2734 13.0156C63.3411 13.1458 63.4401 13.237 63.5703 13.2891C63.7005 13.3359 63.8646 13.3594 64.0625 13.3594C64.2031 13.3594 64.3281 13.3542 64.4375 13.3438C64.5521 13.3281 64.6484 13.3125 64.7266 13.2969L64.7344 14.9531C64.5417 15.0156 64.3333 15.0651 64.1094 15.1016C63.8854 15.138 63.638 15.1562 63.3672 15.1562C62.8724 15.1562 62.4401 15.0755 62.0703 14.9141C61.7057 14.7474 61.4245 14.4818 61.2266 14.1172C61.0286 13.7526 60.9297 13.2734 60.9297 12.6797V4.46094ZM70.4766 13.0938V9.32812C70.4766 9.05729 70.4323 8.82552 70.3438 8.63281C70.2552 8.4349 70.1172 8.28125 69.9297 8.17188C69.7474 8.0625 69.5104 8.00781 69.2188 8.00781C68.9688 8.00781 68.7526 8.05208 68.5703 8.14062C68.388 8.22396 68.2474 8.34635 68.1484 8.50781C68.0495 8.66406 68 8.84896 68 9.0625H65.75C65.75 8.70312 65.8333 8.36198 66 8.03906C66.1667 7.71615 66.4089 7.43229 66.7266 7.1875C67.0443 6.9375 67.4219 6.74219 67.8594 6.60156C68.3021 6.46094 68.7969 6.39062 69.3438 6.39062C70 6.39062 70.5833 6.5 71.0938 6.71875C71.6042 6.9375 72.0052 7.26562 72.2969 7.70312C72.5938 8.14062 72.7422 8.6875 72.7422 9.34375V12.9609C72.7422 13.4245 72.7708 13.8047 72.8281 14.1016C72.8854 14.3932 72.9688 14.6484 73.0781 14.8672V15H70.8047C70.6953 14.7708 70.612 14.4844 70.5547 14.1406C70.5026 13.7917 70.4766 13.4427 70.4766 13.0938ZM70.7734 9.85156L70.7891 11.125H69.5312C69.2344 11.125 68.9766 11.1589 68.7578 11.2266C68.5391 11.2943 68.3594 11.3906 68.2188 11.5156C68.0781 11.6354 67.974 11.776 67.9062 11.9375C67.8438 12.099 67.8125 12.276 67.8125 12.4688C67.8125 12.6615 67.8568 12.8359 67.9453 12.9922C68.0339 13.1432 68.1615 13.263 68.3281 13.3516C68.4948 13.4349 68.6901 13.4766 68.9141 13.4766C69.2526 13.4766 69.5469 13.4089 69.7969 13.2734C70.0469 13.138 70.2396 12.9714 70.375 12.7734C70.5156 12.5755 70.5885 12.388 70.5938 12.2109L71.1875 13.1641C71.1042 13.3776 70.9896 13.599 70.8438 13.8281C70.7031 14.0573 70.5234 14.2734 70.3047 14.4766C70.0859 14.6745 69.8229 14.8385 69.5156 14.9688C69.2083 15.0938 68.8438 15.1562 68.4219 15.1562C67.8854 15.1562 67.3984 15.0495 66.9609 14.8359C66.5286 14.6172 66.1849 14.3177 65.9297 13.9375C65.6797 13.5521 65.5547 13.1146 65.5547 12.625C65.5547 12.1823 65.638 11.7891 65.8047 11.4453C65.9714 11.1016 66.2161 10.8125 66.5391 10.5781C66.8672 10.3385 67.276 10.1589 67.7656 10.0391C68.2552 9.91406 68.8229 9.85156 69.4688 9.85156H70.7734ZM70.9766 3.03906L72.2734 3.125C72.2734 3.50521 72.1979 3.85156 72.0469 4.16406C71.8958 4.47135 71.6875 4.71875 71.4219 4.90625C71.1562 5.08854 70.8516 5.17969 70.5078 5.17969C70.2578 5.17969 70.0417 5.14583 69.8594 5.07812C69.6823 5.01042 69.5182 4.93229 69.3672 4.84375C69.2161 4.75 69.0599 4.66927 68.8984 4.60156C68.7422 4.53385 68.5625 4.5 68.3594 4.5C68.1771 4.5 68.0208 4.5651 67.8906 4.69531C67.7656 4.82552 67.7031 5.01302 67.7031 5.25781L66.3984 5.1875C66.3984 4.8125 66.474 4.46875 66.625 4.15625C66.776 3.84375 66.9844 3.59375 67.25 3.40625C67.5156 3.21354 67.8177 3.11719 68.1562 3.11719C68.3698 3.11719 68.5651 3.15365 68.7422 3.22656C68.9193 3.29427 69.0885 3.3724 69.25 3.46094C69.4167 3.54948 69.5859 3.6276 69.7578 3.69531C69.9297 3.76302 70.112 3.79688 70.3047 3.79688C70.487 3.79688 70.6432 3.73177 70.7734 3.60156C70.9089 3.46615 70.9766 3.27865 70.9766 3.03906ZM74.1172 10.8594V10.6953C74.1172 10.0755 74.2057 9.50521 74.3828 8.98438C74.5599 8.45833 74.8177 8.0026 75.1562 7.61719C75.4948 7.23177 75.9115 6.93229 76.4062 6.71875C76.901 6.5 77.4688 6.39062 78.1094 6.39062C78.75 6.39062 79.3203 6.5 79.8203 6.71875C80.3203 6.93229 80.7396 7.23177 81.0781 7.61719C81.4219 8.0026 81.6823 8.45833 81.8594 8.98438C82.0365 9.50521 82.125 10.0755 82.125 10.6953V10.8594C82.125 11.474 82.0365 12.0443 81.8594 12.5703C81.6823 13.0911 81.4219 13.5469 81.0781 13.9375C80.7396 14.3229 80.3229 14.6224 79.8281 14.8359C79.3333 15.0495 78.7656 15.1562 78.125 15.1562C77.4844 15.1562 76.9141 15.0495 76.4141 14.8359C75.9193 14.6224 75.5 14.3229 75.1562 13.9375C74.8177 13.5469 74.5599 13.0911 74.3828 12.5703C74.2057 12.0443 74.1172 11.474 74.1172 10.8594ZM76.3672 10.6953V10.8594C76.3672 11.2135 76.3984 11.5443 76.4609 11.8516C76.5234 12.1589 76.6224 12.4297 76.7578 12.6641C76.8984 12.8932 77.0807 13.0729 77.3047 13.2031C77.5286 13.3333 77.8021 13.3984 78.125 13.3984C78.4375 13.3984 78.7057 13.3333 78.9297 13.2031C79.1536 13.0729 79.3333 12.8932 79.4688 12.6641C79.6042 12.4297 79.7031 12.1589 79.7656 11.8516C79.8333 11.5443 79.8672 11.2135 79.8672 10.8594V10.6953C79.8672 10.3516 79.8333 10.0286 79.7656 9.72656C79.7031 9.41927 79.6016 9.14844 79.4609 8.91406C79.3255 8.67448 79.1458 8.48698 78.9219 8.35156C78.6979 8.21615 78.4271 8.14844 78.1094 8.14844C77.7917 8.14844 77.5208 8.21615 77.2969 8.35156C77.0781 8.48698 76.8984 8.67448 76.7578 8.91406C76.6224 9.14844 76.5234 9.41927 76.4609 9.72656C76.3984 10.0286 76.3672 10.3516 76.3672 10.6953Z" fill="url(#paint0_linear_25_8446)"/>
<defs>
<linearGradient id="paint0_linear_25_8446" x1="7.07351e-08" y1="9.58716" x2="83" y2="9.58715" gradientUnits="userSpaceOnUse">
<stop stop-color="#30FCCB"/>
<stop offset="1" stop-color="#1BC89E"/>
</linearGradient>
</defs>
</svg>
